<svg data-v-423bf9ae="" xmlns="http://www.w3.org/2000/svg" viewBox="0 0 258.345991467147 60" class="font"><!----><!----><!----><g data-v-423bf9ae="" id="65e73bdf-4a3c-4af0-9080-fb69bbb324e9" fill="#CB594D" transform="matrix(4.552352428436279,0,0,4.552352428436279,3.050065279006958,-33.232173919677734)"><path d="M2.67 11.74L2.67 11.74L3.17 15.10L3.30 15.14Q5.06 12.50 6.01 10.61L6.01 10.61L6.76 10.19L6.95 10.21Q7.53 13.17 8.47 15.39L8.47 15.39Q8.54 15.57 8.59 15.57L8.59 15.57Q8.76 15.57 8.87 15.48L8.87 15.48Q9.56 14.94 10.01 14.26Q10.47 13.58 10.47 12.87L10.47 12.87Q10.47 12.17 9.82 11.17L9.82 11.17L9.82 10.99L10.96 10.14L11.18 10.17Q11.90 10.96 11.90 11.67L11.90 11.67Q11.90 12.01 11.79 12.39Q11.67 12.78 11.43 13.18Q11.19 13.59 10.95 13.94Q10.71 14.29 10.33 14.73Q9.96 15.17 9.70 15.45Q9.45 15.72 9.06 16.14L9.06 16.14Q9.03 16.17 8.87 16.33Q8.72 16.50 8.64 16.57Q8.57 16.65 8.42 16.79Q8.26 16.93 8.16 17.00Q8.05 17.07 7.92 17.13Q7.78 17.19 7.67 17.19L7.67 17.19Q7.35 17.19 7.14 16.49L7.14 16.49L5.82 12.39L5.68 12.39Q5.32 13.01 4.34 14.59Q3.36 16.18 2.87 17.06L2.87 17.06L2.00 17.27L1.85 17.19Q1.80 16.27 1.54 14.11L1.54 14.11Q1.37 12.74 1.25 12.30L1.25 12.30Q1.00 11.38 0.53 11.38L0.53 11.38Q-0.02 11.38-0.48 11.66L-0.48 11.66L-0.67 11.39Q-0.36 11.14-0.14 10.98Q0.08 10.83 0.40 10.63Q0.72 10.42 1.03 10.33Q1.33 10.23 1.61 10.23L1.61 10.23Q1.98 10.23 2.38 10.58L2.38 10.58Q2.41 10.62 2.44 10.66Q2.47 10.70 2.49 10.76Q2.52 10.83 2.53 10.88Q2.55 10.94 2.57 11.05Q2.58 11.16 2.60 11.23Q2.61 11.31 2.63 11.47Q2.65 11.63 2.67 11.74ZM14.57 13.48L14.57 13.48Q15.25 13.26 16.20 12.98L16.20 12.98Q17.12 12.70 17.35 12.59Q17.58 12.48 17.58 12.27L17.58 12.27Q17.58 11.66 17.25 11.19Q16.93 10.72 16.30 10.72L16.30 10.72Q15.87 10.72 15.53 10.90Q15.18 11.09 14.97 11.37Q14.77 11.66 14.63 12.03Q14.49 12.40 14.43 12.74Q14.38 13.08 14.38 13.42L14.38 13.42Q14.38 13.49 14.49 13.49L14.49 13.49Q14.50 13.49 14.53 13.49Q14.55 13.48 14.57 13.48ZM18.59 15.62L18.80 15.67L18.95 15.94Q18.07 16.56 17.29 16.94Q16.52 17.32 15.74 17.32L15.74 17.32Q14.33 17.32 13.56 16.60L13.56 16.60Q12.71 15.81 12.71 14.23L12.71 14.23Q12.71 13.45 12.95 12.73Q13.20 12.00 13.67 11.43Q14.14 10.85 14.90 10.50Q15.67 10.16 16.63 10.16L16.63 10.16Q17.15 10.16 17.61 10.26Q18.06 10.37 18.45 10.60Q18.84 10.83 19.07 11.24Q19.30 11.65 19.30 12.20L19.30 12.20Q19.30 12.60 18.89 12.72L18.89 12.72Q18.85 12.72 14.38 14.11L14.38 14.11Q14.38 14.69 14.61 15.19Q14.84 15.70 15.33 16.03Q15.81 16.37 16.46 16.37L16.46 16.37Q17.36 16.37 18.59 15.62L18.59 15.62ZM21.85 11.80L21.85 11.80Q21.85 13.29 21.88 14.85Q21.92 16.41 21.98 16.70L21.98 16.70L20.45 17.14L20.28 17.05Q20.38 13.62 20.38 12.95L20.38 12.95Q20.38 12.91 20.38 12.83L20.38 12.83Q20.38 12.54 20.37 12.40Q20.37 12.26 20.36 12.02Q20.34 11.79 20.31 11.67Q20.28 11.55 20.22 11.42Q20.17 11.29 20.07 11.23Q19.97 11.17 19.84 11.17L19.84 11.17Q19.76 11.17 19.66 11.20Q19.55 11.24 19.43 11.30Q19.30 11.37 19.22 11.42Q19.13 11.46 19.01 11.54Q18.89 11.61 18.87 11.63L18.87 11.63L18.61 11.29Q18.92 11.05 19.14 10.89Q19.37 10.72 19.68 10.52Q20.00 10.33 20.30 10.23Q20.60 10.13 20.88 10.13L20.88 10.13Q21.37 10.13 21.57 10.39Q21.77 10.66 21.81 11.09L21.81 11.09L21.97 11.16Q23.56 10.17 24.76 10.17L24.76 10.17Q25.18 10.17 25.46 10.32Q25.74 10.47 25.88 10.63Q26.02 10.80 26.09 11.24Q26.16 11.68 26.17 11.94Q26.18 12.20 26.17 12.86L26.17 12.86Q26.17 13.13 26.17 13.27L26.17 13.27Q26.17 13.48 26.15 13.98Q26.13 14.49 26.13 14.71L26.13 14.71Q26.13 15.09 26.16 15.30Q26.20 15.52 26.23 15.58Q26.27 15.65 26.35 15.72L26.35 15.72Q26.50 15.86 26.75 15.86L26.75 15.86Q27.17 15.86 27.69 15.50L27.69 15.50L27.85 15.50L28.01 15.73Q27.28 16.46 26.95 16.71L26.95 16.71Q26.29 17.23 25.78 17.23L25.78 17.23Q25.32 17.23 25.03 16.95L25.03 16.95Q24.94 16.87 24.88 16.77Q24.81 16.67 24.78 16.49Q24.75 16.32 24.73 16.17Q24.71 16.02 24.70 15.72Q24.69 15.42 24.69 15.20Q24.70 14.98 24.70 14.52Q24.71 14.06 24.71 13.73L24.71 13.73Q24.71 13.16 24.69 12.80Q24.68 12.44 24.59 11.99Q24.49 11.54 24.32 11.38L24.32 11.38Q24.09 11.16 23.54 11.16L23.54 11.16Q23.04 11.16 21.85 11.80ZM31.80 7.72L31.99 7.59L34.67 7.30L34.79 7.39Q34.77 7.66 34.74 8.23Q34.70 8.79 34.69 8.99Q34.67 9.18 34.65 9.56Q34.64 9.95 34.63 10.26Q34.62 10.58 34.62 10.99L34.62 10.99L34.61 15.09Q34.61 15.44 34.73 15.74Q34.85 16.04 35.12 16.04L35.12 16.04Q35.29 16.04 35.59 15.87Q35.89 15.71 36.11 15.52L36.11 15.52L36.35 15.83Q35.96 16.23 35.65 16.50Q35.35 16.76 34.89 17.00Q34.43 17.25 34.04 17.25L34.04 17.25Q33.60 17.25 33.38 16.94Q33.16 16.63 33.13 16.18L33.13 16.18Q31.61 17.23 30.44 17.23L30.44 17.23Q29.94 17.23 29.54 17.05Q29.14 16.86 28.89 16.58Q28.64 16.30 28.47 15.91Q28.31 15.53 28.24 15.16Q28.17 14.78 28.17 14.39L28.17 14.39Q28.17 12.51 29.15 11.33Q30.13 10.16 31.77 10.16L31.77 10.16Q32.54 10.16 33.04 10.33L33.04 10.33L33.14 10.26L33.14 8.96Q33.14 8.69 33.08 8.53Q33.02 8.37 32.85 8.29Q32.68 8.20 32.50 8.16Q32.33 8.13 31.97 8.08L31.97 8.08Q31.94 8.08 31.92 8.08Q31.90 8.07 31.86 8.07Q31.83 8.07 31.80 8.06L31.80 8.06L31.80 7.72ZM33.14 15.51L33.14 15.51L33.14 12.02Q33.14 11.26 32.86 10.98Q32.59 10.71 32.05 10.71L32.05 10.71Q31.56 10.71 31.18 10.90Q30.79 11.10 30.55 11.41Q30.32 11.72 30.16 12.14Q30.01 12.56 29.95 12.97Q29.89 13.37 29.89 13.79L29.89 13.79Q29.89 14.13 29.93 14.44Q29.97 14.75 30.08 15.08Q30.19 15.42 30.35 15.66Q30.52 15.90 30.81 16.05Q31.10 16.21 31.47 16.21L31.47 16.21Q32.25 16.21 33.14 15.51ZM37.28 9.05Q37.00 8.78 37.00 8.39Q37.00 8.01 37.28 7.74Q37.55 7.47 37.93 7.47Q38.30 7.47 38.58 7.74Q38.85 8.01 38.85 8.39Q38.85 8.78 38.58 9.05Q38.30 9.32 37.93 9.32Q37.55 9.32 37.28 9.05ZM40.24 15.42L40.24 15.42L40.48 15.65L40.48 15.80Q39.28 17.27 38.29 17.27L38.29 17.27Q37.73 17.27 37.45 16.88L37.45 16.88Q37.35 16.75 37.30 16.59Q37.24 16.43 37.21 16.28Q37.18 16.13 37.17 15.81Q37.17 15.50 37.17 15.26Q37.17 15.01 37.17 14.48Q37.18 13.95 37.18 13.54L37.18 13.54L37.18 11.89Q37.12 11.21 36.70 11.21L36.70 11.21Q36.35 11.21 35.72 11.66L35.72 11.66L35.51 11.35Q35.92 11.01 36.22 10.80Q36.52 10.59 36.98 10.39Q37.43 10.19 37.81 10.19L37.81 10.19Q38.32 10.19 38.51 10.51L38.51 10.51Q38.60 10.66 38.64 10.88Q38.68 11.10 38.68 11.68L38.68 11.68Q38.68 11.96 38.66 12.53Q38.64 13.10 38.64 13.38L38.64 13.38Q38.64 13.60 38.63 13.91Q38.63 14.23 38.63 14.41Q38.62 14.59 38.63 14.83Q38.63 15.07 38.64 15.21Q38.66 15.35 38.68 15.52Q38.71 15.68 38.75 15.77Q38.79 15.85 38.86 15.93Q38.93 16.02 39.02 16.05Q39.12 16.08 39.24 16.08L39.24 16.08Q39.40 16.08 39.60 15.96Q39.80 15.84 39.92 15.73Q40.04 15.62 40.24 15.42ZM47.09 15.31L47.09 15.31Q47.09 16.86 46.88 17.72L46.88 17.72Q46.68 18.57 46.07 19.22Q45.45 19.86 44.65 20.17Q43.85 20.48 42.96 20.48L42.96 20.48Q42.36 20.48 41.73 20.20Q41.10 19.92 40.72 19.48L40.72 19.48L41.56 18.38L41.86 18.38Q42.65 19.78 43.59 19.78L43.59 19.78Q44.00 19.78 44.36 19.61Q44.73 19.43 44.94 19.15L44.94 19.15Q45.37 18.57 45.49 18.05Q45.60 17.53 45.62 16.32L45.62 16.32Q44.86 16.82 44.19 17.09Q43.52 17.36 42.81 17.36L42.81 17.36Q40.79 17.36 40.79 14.10L40.79 14.10Q40.79 12.28 41.72 11.22Q42.64 10.16 44.25 10.16L44.25 10.16Q45.29 10.16 46.10 10.71L46.10 10.71L46.97 10.36L47.15 10.41Q47.11 11.15 47.10 11.83Q47.09 12.51 47.09 15.31ZM45.62 15.50L45.62 15.50L45.62 11.87Q45.62 11.33 45.23 11.03Q44.84 10.73 44.39 10.73L44.39 10.73Q43.72 10.73 43.26 11.09Q42.81 11.45 42.61 12.01Q42.42 12.58 42.42 13.32L42.42 13.32Q42.42 16.28 43.94 16.28L43.94 16.28Q44.41 16.28 44.88 16.06Q45.36 15.85 45.62 15.50ZM50.73 13.82L50.73 13.82Q50.73 14.13 50.77 14.48Q50.81 14.82 50.93 15.22Q51.04 15.63 51.22 15.94Q51.40 16.25 51.71 16.46Q52.02 16.67 52.41 16.67L52.41 16.67Q52.79 16.67 53.08 16.56Q53.37 16.45 53.56 16.29Q53.76 16.13 53.89 15.85Q54.03 15.57 54.10 15.31Q54.17 15.06 54.22 14.68Q54.26 14.29 54.26 14.02Q54.27 13.75 54.27 13.34L54.27 13.34Q54.27 12.86 54.19 12.44Q54.11 12.02 53.92 11.65Q53.74 11.28 53.39 11.06Q53.05 10.85 52.58 10.85L52.58 10.85Q52.15 10.85 51.82 11.04Q51.49 11.24 51.29 11.54Q51.09 11.84 50.96 12.25Q50.83 12.65 50.78 13.04Q50.73 13.42 50.73 13.82ZM48.92 13.83L48.92 13.83Q48.92 12.30 49.98 11.29Q51.03 10.29 52.66 10.29Q54.28 10.29 55.14 11.05L55.14 11.05Q56.08 11.91 56.08 13.25L56.08 13.25Q56.08 14.10 55.88 14.77Q55.68 15.45 55.34 15.91Q55.00 16.37 54.51 16.67Q54.03 16.97 53.48 17.11Q52.93 17.25 52.29 17.25L52.29 17.25Q50.67 17.25 49.93 16.57L49.93 16.57Q48.92 15.66 48.92 13.83Z"></path></g><!----><!----></svg>